<mxfile host="app.diagrams.net" modified="2024-05-30T19:02:55.717Z" agent="Mozilla/5.0 (Windows NT 10.0; Win64; x64) AppleWebKit/537.36 (KHTML, like Gecko) Chrome/125.0.0.0 Safari/537.36" etag="23qLlqKoIy2ckplI-XPL" version="24.4.10" type="device">
  <diagram name="Page-1" id="D9KrbN1HpGchZC3lj7AW">
    <mxGraphModel dx="2899" dy="1066" grid="1" gridSize="10" guides="1" tooltips="1" connect="1" arrows="1" fold="1" page="1" pageScale="1" pageWidth="850" pageHeight="1100" math="0" shadow="0">
      <root>
        <mxCell id="0" />
        <mxCell id="1" parent="0" />
        <mxCell id="H8Bho8Vx2GJubfs2moUF-58" value="" style="rounded=0;whiteSpace=wrap;html=1;" parent="1" vertex="1">
          <mxGeometry x="-740" y="10" width="630" height="1070" as="geometry" />
        </mxCell>
        <mxCell id="q1pkWmGgmF4G5Z5k3sib-1" value="Customer" style="shape=umlActor;verticalLabelPosition=bottom;verticalAlign=top;html=1;outlineConnect=0;" parent="1" vertex="1">
          <mxGeometry x="-810" y="565" width="30" height="60" as="geometry" />
        </mxCell>
        <mxCell id="q1pkWmGgmF4G5Z5k3sib-2" value="Librarian" style="shape=umlActor;verticalLabelPosition=bottom;verticalAlign=top;html=1;outlineConnect=0;" parent="1" vertex="1">
          <mxGeometry x="-66.22" y="565" width="30" height="60" as="geometry" />
        </mxCell>
        <mxCell id="q1pkWmGgmF4G5Z5k3sib-6" value="&lt;b&gt;Library&lt;br&gt;&lt;/b&gt;" style="text;html=1;align=center;verticalAlign=middle;whiteSpace=wrap;rounded=0;" parent="1" vertex="1">
          <mxGeometry x="-463.75" y="20" width="73.75" height="30" as="geometry" />
        </mxCell>
        <mxCell id="q1pkWmGgmF4G5Z5k3sib-31" value="" style="endArrow=none;html=1;rounded=0;entryX=1;entryY=0;entryDx=0;entryDy=0;exitX=0;exitY=0.3333333333333333;exitDx=0;exitDy=0;exitPerimeter=0;" parent="1" source="q1pkWmGgmF4G5Z5k3sib-2" target="H8Bho8Vx2GJubfs2moUF-10" edge="1">
          <mxGeometry width="50" height="50" relative="1" as="geometry">
            <mxPoint x="-526.22" y="485" as="sourcePoint" />
            <mxPoint x="-106.220000000005" y="430" as="targetPoint" />
          </mxGeometry>
        </mxCell>
        <mxCell id="wmEHwvrF9gfvvMeBKOm7-9" value="" style="endArrow=none;html=1;rounded=0;entryX=0;entryY=0.5;entryDx=0;entryDy=0;exitX=1;exitY=0.3333333333333333;exitDx=0;exitDy=0;exitPerimeter=0;" parent="1" source="q1pkWmGgmF4G5Z5k3sib-1" target="H8Bho8Vx2GJubfs2moUF-49" edge="1">
          <mxGeometry width="50" height="50" relative="1" as="geometry">
            <mxPoint x="-744" y="600" as="sourcePoint" />
            <mxPoint x="-716.5165042944955" y="732.3223304703365" as="targetPoint" />
          </mxGeometry>
        </mxCell>
        <mxCell id="wmEHwvrF9gfvvMeBKOm7-11" value="" style="endArrow=none;html=1;rounded=0;entryX=0;entryY=0.5;entryDx=0;entryDy=0;exitX=1;exitY=0.3333333333333333;exitDx=0;exitDy=0;exitPerimeter=0;" parent="1" source="q1pkWmGgmF4G5Z5k3sib-1" target="H8Bho8Vx2GJubfs2moUF-47" edge="1">
          <mxGeometry width="50" height="50" relative="1" as="geometry">
            <mxPoint x="-750" y="585" as="sourcePoint" />
            <mxPoint x="-719.0165042944955" y="467.67766952966304" as="targetPoint" />
          </mxGeometry>
        </mxCell>
        <mxCell id="wmEHwvrF9gfvvMeBKOm7-13" value="" style="endArrow=none;html=1;rounded=0;entryX=0;entryY=0.5;entryDx=0;entryDy=0;exitX=1;exitY=0.3333333333333333;exitDx=0;exitDy=0;exitPerimeter=0;" parent="1" source="q1pkWmGgmF4G5Z5k3sib-1" target="H8Bho8Vx2GJubfs2moUF-48" edge="1">
          <mxGeometry width="50" height="50" relative="1" as="geometry">
            <mxPoint x="-820" y="605" as="sourcePoint" />
            <mxPoint x="-730" y="650" as="targetPoint" />
          </mxGeometry>
        </mxCell>
        <mxCell id="wmEHwvrF9gfvvMeBKOm7-50" value="" style="endArrow=none;html=1;rounded=0;entryX=1;entryY=1;entryDx=0;entryDy=0;exitX=0;exitY=0.3333333333333333;exitDx=0;exitDy=0;exitPerimeter=0;" parent="1" source="q1pkWmGgmF4G5Z5k3sib-2" target="H8Bho8Vx2GJubfs2moUF-16" edge="1">
          <mxGeometry width="50" height="50" relative="1" as="geometry">
            <mxPoint x="-56.22" y="395" as="sourcePoint" />
            <mxPoint x="-106.220000000005" y="330" as="targetPoint" />
          </mxGeometry>
        </mxCell>
        <mxCell id="wmEHwvrF9gfvvMeBKOm7-57" value="" style="endArrow=none;html=1;rounded=0;entryX=1;entryY=0;entryDx=0;entryDy=0;exitX=0;exitY=0.3333333333333333;exitDx=0;exitDy=0;exitPerimeter=0;" parent="1" source="q1pkWmGgmF4G5Z5k3sib-2" target="JFB4fge5Wf1V-ydik8tn-20" edge="1">
          <mxGeometry width="50" height="50" relative="1" as="geometry">
            <mxPoint x="-46.22" y="465" as="sourcePoint" />
            <mxPoint x="-147.8468939877059" y="985.2512626584708" as="targetPoint" />
          </mxGeometry>
        </mxCell>
        <mxCell id="H8Bho8Vx2GJubfs2moUF-1" value="Create entry of titles" style="ellipse;whiteSpace=wrap;html=1;" parent="1" vertex="1">
          <mxGeometry x="-407.48" y="80" width="105" height="70" as="geometry" />
        </mxCell>
        <mxCell id="H8Bho8Vx2GJubfs2moUF-3" value="Update loan status" style="ellipse;whiteSpace=wrap;html=1;" parent="1" vertex="1">
          <mxGeometry x="-407.48" y="535" width="105" height="70" as="geometry" />
        </mxCell>
        <mxCell id="H8Bho8Vx2GJubfs2moUF-10" value="Manage loans" style="ellipse;whiteSpace=wrap;html=1;" parent="1" vertex="1">
          <mxGeometry x="-236.23000000000002" y="575" width="105" height="70" as="geometry" />
        </mxCell>
        <mxCell id="H8Bho8Vx2GJubfs2moUF-16" value="Manage titles" style="ellipse;whiteSpace=wrap;html=1;" parent="1" vertex="1">
          <mxGeometry x="-236.26" y="215" width="105" height="70" as="geometry" />
        </mxCell>
        <mxCell id="H8Bho8Vx2GJubfs2moUF-17" value="" style="endArrow=none;html=1;rounded=0;entryX=1;entryY=1;entryDx=0;entryDy=0;exitX=0;exitY=0.5;exitDx=0;exitDy=0;startArrow=classic;startFill=1;dashed=1;" parent="1" source="H8Bho8Vx2GJubfs2moUF-16" target="H8Bho8Vx2GJubfs2moUF-1" edge="1">
          <mxGeometry width="50" height="50" relative="1" as="geometry">
            <mxPoint x="-251.26" y="249.75" as="sourcePoint" />
            <mxPoint x="-301.26" y="249.75" as="targetPoint" />
          </mxGeometry>
        </mxCell>
        <mxCell id="H8Bho8Vx2GJubfs2moUF-18" value="&amp;lt;&amp;lt;Includes&amp;gt;&amp;gt;" style="edgeLabel;html=1;align=center;verticalAlign=middle;resizable=0;points=[];" parent="H8Bho8Vx2GJubfs2moUF-17" vertex="1" connectable="0">
          <mxGeometry x="-0.4177" relative="1" as="geometry">
            <mxPoint x="-26" y="-48" as="offset" />
          </mxGeometry>
        </mxCell>
        <mxCell id="H8Bho8Vx2GJubfs2moUF-19" value="" style="endArrow=none;html=1;rounded=0;entryX=1;entryY=1;entryDx=0;entryDy=0;exitX=0;exitY=0.5;exitDx=0;exitDy=0;startArrow=classic;startFill=1;dashed=1;" parent="1" source="H8Bho8Vx2GJubfs2moUF-10" target="H8Bho8Vx2GJubfs2moUF-3" edge="1">
          <mxGeometry width="50" height="50" relative="1" as="geometry">
            <mxPoint x="-233.75" y="489.6400000000001" as="sourcePoint" />
            <mxPoint x="-303.75" y="489.6400000000001" as="targetPoint" />
          </mxGeometry>
        </mxCell>
        <mxCell id="H8Bho8Vx2GJubfs2moUF-20" value="&amp;lt;&amp;lt;Includes&amp;gt;&amp;gt;" style="edgeLabel;html=1;align=center;verticalAlign=middle;resizable=0;points=[];" parent="H8Bho8Vx2GJubfs2moUF-19" vertex="1" connectable="0">
          <mxGeometry x="-0.4177" relative="1" as="geometry">
            <mxPoint x="-30" y="-15" as="offset" />
          </mxGeometry>
        </mxCell>
        <mxCell id="H8Bho8Vx2GJubfs2moUF-29" value="Lookup loan status" style="ellipse;whiteSpace=wrap;html=1;" parent="1" vertex="1">
          <mxGeometry x="-407.48" y="625" width="105" height="70" as="geometry" />
        </mxCell>
        <mxCell id="H8Bho8Vx2GJubfs2moUF-39" value="" style="endArrow=none;html=1;rounded=0;entryX=1;entryY=0;entryDx=0;entryDy=0;exitX=0;exitY=0.5;exitDx=0;exitDy=0;startArrow=classic;startFill=1;dashed=1;" parent="1" source="H8Bho8Vx2GJubfs2moUF-10" target="H8Bho8Vx2GJubfs2moUF-29" edge="1">
          <mxGeometry width="50" height="50" relative="1" as="geometry">
            <mxPoint x="-212.74999999999997" y="475" as="sourcePoint" />
            <mxPoint x="-308.75" y="435" as="targetPoint" />
          </mxGeometry>
        </mxCell>
        <mxCell id="H8Bho8Vx2GJubfs2moUF-40" value="&amp;lt;&amp;lt;Includes&amp;gt;&amp;gt;" style="edgeLabel;html=1;align=center;verticalAlign=middle;resizable=0;points=[];" parent="H8Bho8Vx2GJubfs2moUF-39" vertex="1" connectable="0">
          <mxGeometry x="-0.4177" relative="1" as="geometry">
            <mxPoint x="-24" y="19" as="offset" />
          </mxGeometry>
        </mxCell>
        <mxCell id="H8Bho8Vx2GJubfs2moUF-47" value="Purchase title" style="ellipse;whiteSpace=wrap;html=1;" parent="1" vertex="1">
          <mxGeometry x="-710" y="425" width="105" height="70" as="geometry" />
        </mxCell>
        <mxCell id="H8Bho8Vx2GJubfs2moUF-48" value="Return title" style="ellipse;whiteSpace=wrap;html=1;" parent="1" vertex="1">
          <mxGeometry x="-710" y="515" width="105" height="70" as="geometry" />
        </mxCell>
        <mxCell id="H8Bho8Vx2GJubfs2moUF-49" value="Rent title" style="ellipse;whiteSpace=wrap;html=1;" parent="1" vertex="1">
          <mxGeometry x="-710" y="605" width="105" height="70" as="geometry" />
        </mxCell>
        <mxCell id="JFB4fge5Wf1V-ydik8tn-1" value="Create a reservation" style="ellipse;whiteSpace=wrap;html=1;" vertex="1" parent="1">
          <mxGeometry x="-710" y="695" width="105" height="70" as="geometry" />
        </mxCell>
        <mxCell id="JFB4fge5Wf1V-ydik8tn-2" value="" style="endArrow=none;html=1;rounded=0;entryX=0;entryY=0.5;entryDx=0;entryDy=0;exitX=1;exitY=0.3333333333333333;exitDx=0;exitDy=0;exitPerimeter=0;" edge="1" parent="1" source="q1pkWmGgmF4G5Z5k3sib-1" target="JFB4fge5Wf1V-ydik8tn-1">
          <mxGeometry width="50" height="50" relative="1" as="geometry">
            <mxPoint x="-770" y="595" as="sourcePoint" />
            <mxPoint x="-680" y="690" as="targetPoint" />
          </mxGeometry>
        </mxCell>
        <mxCell id="JFB4fge5Wf1V-ydik8tn-3" value="Update entry of titles" style="ellipse;whiteSpace=wrap;html=1;" vertex="1" parent="1">
          <mxGeometry x="-410" y="170" width="105" height="70" as="geometry" />
        </mxCell>
        <mxCell id="JFB4fge5Wf1V-ydik8tn-4" value="Delete entry of titles" style="ellipse;whiteSpace=wrap;html=1;" vertex="1" parent="1">
          <mxGeometry x="-410" y="350" width="105" height="70" as="geometry" />
        </mxCell>
        <mxCell id="JFB4fge5Wf1V-ydik8tn-5" value="" style="endArrow=none;html=1;rounded=0;entryX=1;entryY=1;entryDx=0;entryDy=0;exitX=0;exitY=0.5;exitDx=0;exitDy=0;startArrow=classic;startFill=1;dashed=1;" edge="1" parent="1" source="H8Bho8Vx2GJubfs2moUF-16" target="JFB4fge5Wf1V-ydik8tn-3">
          <mxGeometry width="50" height="50" relative="1" as="geometry">
            <mxPoint x="-226.22" y="260" as="sourcePoint" />
            <mxPoint x="-294.22" y="190" as="targetPoint" />
          </mxGeometry>
        </mxCell>
        <mxCell id="JFB4fge5Wf1V-ydik8tn-6" value="&amp;lt;&amp;lt;Includes&amp;gt;&amp;gt;" style="edgeLabel;html=1;align=center;verticalAlign=middle;resizable=0;points=[];" vertex="1" connectable="0" parent="JFB4fge5Wf1V-ydik8tn-5">
          <mxGeometry x="-0.4177" relative="1" as="geometry">
            <mxPoint x="-30" y="61" as="offset" />
          </mxGeometry>
        </mxCell>
        <mxCell id="JFB4fge5Wf1V-ydik8tn-7" value="" style="endArrow=none;html=1;rounded=0;entryX=1;entryY=0;entryDx=0;entryDy=0;exitX=0;exitY=0.5;exitDx=0;exitDy=0;startArrow=classic;startFill=1;dashed=1;" edge="1" parent="1" source="H8Bho8Vx2GJubfs2moUF-16" target="JFB4fge5Wf1V-ydik8tn-4">
          <mxGeometry width="50" height="50" relative="1" as="geometry">
            <mxPoint x="-226.22" y="260" as="sourcePoint" />
            <mxPoint x="-309.22" y="205" as="targetPoint" />
          </mxGeometry>
        </mxCell>
        <mxCell id="JFB4fge5Wf1V-ydik8tn-8" value="&amp;lt;&amp;lt;Includes&amp;gt;&amp;gt;" style="edgeLabel;html=1;align=center;verticalAlign=middle;resizable=0;points=[];" vertex="1" connectable="0" parent="JFB4fge5Wf1V-ydik8tn-7">
          <mxGeometry x="-0.4177" relative="1" as="geometry">
            <mxPoint x="-26" y="-22" as="offset" />
          </mxGeometry>
        </mxCell>
        <mxCell id="JFB4fge5Wf1V-ydik8tn-9" value="Create loan" style="ellipse;whiteSpace=wrap;html=1;" vertex="1" parent="1">
          <mxGeometry x="-408.75" y="445" width="105" height="70" as="geometry" />
        </mxCell>
        <mxCell id="JFB4fge5Wf1V-ydik8tn-10" value="" style="endArrow=none;html=1;rounded=0;entryX=1;entryY=1;entryDx=0;entryDy=0;exitX=0;exitY=0.5;exitDx=0;exitDy=0;startArrow=classic;startFill=1;dashed=1;" edge="1" parent="1" source="H8Bho8Vx2GJubfs2moUF-10" target="JFB4fge5Wf1V-ydik8tn-9">
          <mxGeometry width="50" height="50" relative="1" as="geometry">
            <mxPoint x="-226.22" y="600" as="sourcePoint" />
            <mxPoint x="-294.22" y="600" as="targetPoint" />
          </mxGeometry>
        </mxCell>
        <mxCell id="JFB4fge5Wf1V-ydik8tn-11" value="&amp;lt;&amp;lt;Includes&amp;gt;&amp;gt;" style="edgeLabel;html=1;align=center;verticalAlign=middle;resizable=0;points=[];" vertex="1" connectable="0" parent="JFB4fge5Wf1V-ydik8tn-10">
          <mxGeometry x="-0.4177" relative="1" as="geometry">
            <mxPoint x="-26" y="-49" as="offset" />
          </mxGeometry>
        </mxCell>
        <mxCell id="JFB4fge5Wf1V-ydik8tn-12" value="Lookup entry of titles" style="ellipse;whiteSpace=wrap;html=1;" vertex="1" parent="1">
          <mxGeometry x="-410" y="260" width="105" height="70" as="geometry" />
        </mxCell>
        <mxCell id="JFB4fge5Wf1V-ydik8tn-13" value="" style="endArrow=none;html=1;rounded=0;entryX=1;entryY=0;entryDx=0;entryDy=0;exitX=0;exitY=0.5;exitDx=0;exitDy=0;startArrow=classic;startFill=1;dashed=1;" edge="1" parent="1" source="H8Bho8Vx2GJubfs2moUF-16" target="JFB4fge5Wf1V-ydik8tn-12">
          <mxGeometry width="50" height="50" relative="1" as="geometry">
            <mxPoint x="-226.22" y="260" as="sourcePoint" />
            <mxPoint x="-310.22" y="415" as="targetPoint" />
          </mxGeometry>
        </mxCell>
        <mxCell id="JFB4fge5Wf1V-ydik8tn-14" value="&amp;lt;&amp;lt;Includes&amp;gt;&amp;gt;" style="edgeLabel;html=1;align=center;verticalAlign=middle;resizable=0;points=[];" vertex="1" connectable="0" parent="JFB4fge5Wf1V-ydik8tn-13">
          <mxGeometry x="-0.4177" relative="1" as="geometry">
            <mxPoint x="-26" y="-41" as="offset" />
          </mxGeometry>
        </mxCell>
        <mxCell id="JFB4fge5Wf1V-ydik8tn-15" value="Delete loan status" style="ellipse;whiteSpace=wrap;html=1;" vertex="1" parent="1">
          <mxGeometry x="-407.48" y="715" width="105" height="70" as="geometry" />
        </mxCell>
        <mxCell id="JFB4fge5Wf1V-ydik8tn-17" value="" style="endArrow=none;html=1;rounded=0;entryX=1;entryY=0;entryDx=0;entryDy=0;exitX=0;exitY=0.5;exitDx=0;exitDy=0;startArrow=classic;startFill=1;dashed=1;" edge="1" parent="1" source="H8Bho8Vx2GJubfs2moUF-10" target="JFB4fge5Wf1V-ydik8tn-15">
          <mxGeometry width="50" height="50" relative="1" as="geometry">
            <mxPoint x="-226.22" y="620" as="sourcePoint" />
            <mxPoint x="-309.22" y="515" as="targetPoint" />
          </mxGeometry>
        </mxCell>
        <mxCell id="JFB4fge5Wf1V-ydik8tn-18" value="&amp;lt;&amp;lt;Includes&amp;gt;&amp;gt;" style="edgeLabel;html=1;align=center;verticalAlign=middle;resizable=0;points=[];" vertex="1" connectable="0" parent="JFB4fge5Wf1V-ydik8tn-17">
          <mxGeometry x="-0.4177" relative="1" as="geometry">
            <mxPoint x="-26" y="42" as="offset" />
          </mxGeometry>
        </mxCell>
        <mxCell id="JFB4fge5Wf1V-ydik8tn-19" value="Cancel reservation status" style="ellipse;whiteSpace=wrap;html=1;" vertex="1" parent="1">
          <mxGeometry x="-407.48" y="895" width="105" height="70" as="geometry" />
        </mxCell>
        <mxCell id="JFB4fge5Wf1V-ydik8tn-20" value="Manage reservations" style="ellipse;whiteSpace=wrap;html=1;" vertex="1" parent="1">
          <mxGeometry x="-236.23" y="895" width="105" height="70" as="geometry" />
        </mxCell>
        <mxCell id="JFB4fge5Wf1V-ydik8tn-21" value="" style="endArrow=none;html=1;rounded=0;entryX=1;entryY=0.5;entryDx=0;entryDy=0;exitX=0;exitY=0.5;exitDx=0;exitDy=0;startArrow=classic;startFill=1;dashed=1;" edge="1" parent="1" source="JFB4fge5Wf1V-ydik8tn-20" target="JFB4fge5Wf1V-ydik8tn-19">
          <mxGeometry width="50" height="50" relative="1" as="geometry">
            <mxPoint x="-233.75" y="849.6400000000001" as="sourcePoint" />
            <mxPoint x="-303.75" y="849.6400000000001" as="targetPoint" />
          </mxGeometry>
        </mxCell>
        <mxCell id="JFB4fge5Wf1V-ydik8tn-22" value="&amp;lt;&amp;lt;Includes&amp;gt;&amp;gt;" style="edgeLabel;html=1;align=center;verticalAlign=middle;resizable=0;points=[];" vertex="1" connectable="0" parent="JFB4fge5Wf1V-ydik8tn-21">
          <mxGeometry x="-0.4177" relative="1" as="geometry">
            <mxPoint x="-30" y="-15" as="offset" />
          </mxGeometry>
        </mxCell>
        <mxCell id="JFB4fge5Wf1V-ydik8tn-23" value="Mark reservation as complete" style="ellipse;whiteSpace=wrap;html=1;" vertex="1" parent="1">
          <mxGeometry x="-407.48" y="985" width="105" height="70" as="geometry" />
        </mxCell>
        <mxCell id="JFB4fge5Wf1V-ydik8tn-24" value="" style="endArrow=none;html=1;rounded=0;entryX=1;entryY=0;entryDx=0;entryDy=0;exitX=0;exitY=0.5;exitDx=0;exitDy=0;startArrow=classic;startFill=1;dashed=1;" edge="1" parent="1" source="JFB4fge5Wf1V-ydik8tn-20" target="JFB4fge5Wf1V-ydik8tn-23">
          <mxGeometry width="50" height="50" relative="1" as="geometry">
            <mxPoint x="-212.74999999999997" y="835" as="sourcePoint" />
            <mxPoint x="-308.75" y="795" as="targetPoint" />
          </mxGeometry>
        </mxCell>
        <mxCell id="JFB4fge5Wf1V-ydik8tn-25" value="&amp;lt;&amp;lt;Includes&amp;gt;&amp;gt;" style="edgeLabel;html=1;align=center;verticalAlign=middle;resizable=0;points=[];" vertex="1" connectable="0" parent="JFB4fge5Wf1V-ydik8tn-24">
          <mxGeometry x="-0.4177" relative="1" as="geometry">
            <mxPoint x="-24" y="19" as="offset" />
          </mxGeometry>
        </mxCell>
        <mxCell id="JFB4fge5Wf1V-ydik8tn-26" value="Create reservation" style="ellipse;whiteSpace=wrap;html=1;" vertex="1" parent="1">
          <mxGeometry x="-408.75" y="805" width="105" height="70" as="geometry" />
        </mxCell>
        <mxCell id="JFB4fge5Wf1V-ydik8tn-27" value="" style="endArrow=none;html=1;rounded=0;entryX=1;entryY=1;entryDx=0;entryDy=0;exitX=0;exitY=0.5;exitDx=0;exitDy=0;startArrow=classic;startFill=1;dashed=1;" edge="1" parent="1" source="JFB4fge5Wf1V-ydik8tn-20" target="JFB4fge5Wf1V-ydik8tn-26">
          <mxGeometry width="50" height="50" relative="1" as="geometry">
            <mxPoint x="-226.22" y="960" as="sourcePoint" />
            <mxPoint x="-294.22" y="960" as="targetPoint" />
          </mxGeometry>
        </mxCell>
        <mxCell id="JFB4fge5Wf1V-ydik8tn-28" value="&amp;lt;&amp;lt;Includes&amp;gt;&amp;gt;" style="edgeLabel;html=1;align=center;verticalAlign=middle;resizable=0;points=[];" vertex="1" connectable="0" parent="JFB4fge5Wf1V-ydik8tn-27">
          <mxGeometry x="-0.4177" relative="1" as="geometry">
            <mxPoint x="-26" y="-49" as="offset" />
          </mxGeometry>
        </mxCell>
      </root>
    </mxGraphModel>
  </diagram>
</mxfile>
